<svg xmlns="http://www.w3.org/2000/svg" width="410" height="82"><path fill="#34D1D9" fill-rule="evenodd" d="M125.882 21.292V16.33a1.223 1.223 0 0 1 1.189-1.255h21.814a1.199 1.199 0 0 1 1.244 1.156c.002.027.002.054.002.08v4.247a6.984 6.984 0 0 1-1.623 3.128L137.186 40.08c4.296-.24 8.576.7 12.398 2.722a2.268 2.268 0 0 1 1.15 1.93v5.291c.021.651-.477 1.194-1.113 1.215a1.13 1.13 0 0 1-.49-.095 24.59 24.59 0 0 0-22.966 0c-.755.406-1.547-.424-1.547-1.158v-5.02a6.072 6.072 0 0 1 .811-3.399l13.078-19.077h-11.323c-.675.033-1.251-.502-1.283-1.195v-.021l-.019.02zM37.391 51.248a1.273 1.273 0 0 1-1.215-1.152V15.062a1.289 1.289 0 0 1 1.313-1.27H43.894a1.312 1.312 0 0 1 1.253 1.192v4.57h.118a9.048 9.048 0 0 1 9.03-6.484c4.29 0 6.992 2.05 8.912 6.484 2.027-5.22 7.913-7.814 13.149-5.794a10.152 10.152 0 0 1 4.284 3.138c2.174 2.948 1.723 7.225 1.723 10.975v22.125a1.29 1.29 0 0 1-1.33 1.25h-6.857a1.292 1.292 0 0 1-1.234-1.25V31.427c.102-2.19.037-4.382-.196-6.562a3.564 3.564 0 0 0-4.023-3.029l-.012.002a4.564 4.564 0 0 0-4.094 2.871 21.16 21.16 0 0 0-.646 6.718v18.57a1.27 1.27 0 0 1-1.293 1.25h-6.875a1.292 1.292 0 0 1-1.234-1.25v-18.57c0-3.906.646-9.667-4.211-9.667-4.858 0-4.74 5.605-4.74 9.667v18.57a1.272 1.272 0 0 1-1.291 1.253c-.02 0-.041 0-.061-.002h-6.875zm130.812-38.184c10.201 0 15.694 8.526 15.694 19.37 0 10.5-6.081 18.816-15.694 18.816-10.004 0-15.458-8.545-15.458-19.16s5.454-19.026 15.4-19.026h.058zm-5.409 17.975c0 4.2 0 13.177 5.397 13.177s5.635-7.25 5.635-11.661c.117-3.069-.23-6.14-1.032-9.11-.44-2.053-2.38-3.476-4.544-3.338-5.119 0-5.456 6.732-5.456 10.932zm34.613 20.13h-6.337c-.63-.021-1.134-.567-1.144-1.244V14.94c.066-.663.596-1.16 1.217-1.147h5.9c.542.032 1.005.432 1.145.992v5.325h.109c1.815-4.762 4.285-7.036 8.679-7.036 2.983-.155 5.815 1.41 7.426 4.101 1.652 2.78 1.652 7.483 1.652 10.865v22.118c-.084.644-.61 1.116-1.217 1.089h-6.373c-.577-.022-1.056-.478-1.143-1.089v-18.93c0-3.888.415-9.407-3.977-9.407-1.618.09-3.037 1.185-3.631 2.798a16.148 16.148 0 0 0-1.017 6.609v18.775c-.029.717-.597 1.277-1.267 1.246l-.022-.002v-.078zm-82.345-.492a1.393 1.393 0 0 1-1.595.152 16.257 16.257 0 0 1-3.842-4.45A13.48 13.48 0 0 1 98.52 51.23c-5.763 0-10.086-3.475-10.086-10.408-.121-4.767 2.741-9.11 7.185-10.905 3.65-1.585 8.76-1.91 12.66-2.31v-.88a8.343 8.343 0 0 0-.826-4.831 4.488 4.488 0 0 0-3.842-1.738c-2.565-.208-4.886 1.509-5.418 4.01a1.4 1.4 0 0 1-1.172 1.223l-6.512-.688a1.203 1.203 0 0 1-.941-1.413c1.498-7.85 8.645-10.217 15.061-10.217a15.43 15.43 0 0 1 10.105 3.323c3.266 3.036 2.959 7.085 2.959 11.459v10.408a9.141 9.141 0 0 0 2.535 6.188 1.255 1.255 0 0 1 0 1.757c-1.383 1.146-3.842 3.246-5.167 4.45v.019zm-6.609-16.127v-1.388c-4.862 0-9.973.986-9.973 6.431 0 2.759 1.493 4.623 4.078 4.623 2-.068 3.797-1.184 4.67-2.905a11.94 11.94 0 0 0 1.225-6.76zM26.551 50.678a1.404 1.404 0 0 1-1.591.153 16.68 16.68 0 0 1-3.833-4.45 13.44 13.44 0 0 1-11.059 4.85C4.414 51.232.006 47.757.006 40.824a11.343 11.343 0 0 1 7.168-10.905c3.642-1.585 8.72-1.91 12.63-2.311v-.879a8.504 8.504 0 0 0-.824-4.831 4.554 4.554 0 0 0-3.833-1.738 5.096 5.096 0 0 0-5.386 4.01 1.396 1.396 0 0 1-1.169 1.223l-6.516-.688a1.202 1.202 0 0 1-.9-1.413C2.67 15.44 9.8 13.073 16.2 13.073a15.376 15.376 0 0 1 10.1 3.323c3.278 3.037 2.952 7.086 2.952 11.46v10.408a9.144 9.144 0 0 0 2.53 6.188c.487.47.5 1.243.029 1.728l-.029.029c-1.36 1.146-3.833 3.247-5.136 4.45l-.096.019zm-6.522-17.516c-4.856 0-9.98.986-9.98 6.431 0 2.759 1.51 4.623 4.072 4.623 1.989-.08 3.773-1.197 4.646-2.905a11.965 11.965 0 0 0 1.262-6.76v-1.39zM87.873 80.39c-21.116.118-41.515-8.105-57.209-23.069-1.194-1.121-.135-2.671 1.29-1.794 17.477 10.548 37.249 16.08 57.364 16.05 14.996-.077 29.829-3.285 43.653-9.443 2.06-.958 3.85 1.49 1.752 3.12-12.67 9.872-31.021 15.136-46.85 15.136zm51.877-21.21c-1.648-2.14-10.906-1.02-15.065-.499-1.275.138-1.47-.981-.333-1.781 7.395-5.277 19.498-3.758 20.91-1.999 1.412 1.76-.373 14.113-7.297 19.99-1.079.92-2.08.42-1.608-.76 1.55-3.938 5.04-12.791 3.393-14.95zM353.036 45.43c1.29-.896 2.026-2.358 1.955-3.89a3.552 3.552 0 0 0-1.134-2.762 12.663 12.663 0 0 0-4.184-2.142l-6.296-2.256c-5.455-1.879-8.214-5.261-8.214-9.94-.095-2.94 1.297-5.744 3.737-7.518 2.827-1.99 6.276-2.99 9.776-2.837 3.205 0 6.384.554 9.385 1.635a2.75 2.75 0 0 1 1.271.733c.264.417.387.903.35 1.39v1.88c0 .845-.31 1.277-.956 1.277a6.536 6.536 0 0 1-1.701-.357 28.665 28.665 0 0 0-7.977-1.127c-4.732 0-7.118 1.522-7.118 4.604a3.68 3.68 0 0 0 1.193 2.913 15.866 15.866 0 0 0 4.654 2.33l5.865 2.123a15.365 15.365 0 0 1 6.16 3.947 8.505 8.505 0 0 1 1.955 5.788c.119 3.117-1.34 6.1-3.91 8.005-3.037 2.135-6.745 3.195-10.5 3.009a30.013 30.013 0 0 1-11.165-1.994 3.154 3.154 0 0 1-1.212-.77 2.31 2.31 0 0 1-.333-1.353v-1.99c0-.848.294-1.28.88-1.28a7.57 7.57 0 0 1 1.858.432 34.315 34.315 0 0 0 10.128 1.485 9.39 9.39 0 0 0 5.533-1.353v.018zm-32.589-29.894a1.293 1.293 0 0 1 1.099-1.455c.116-.015.232-.015.348.002h4.244a1.28 1.28 0 0 1 1.444 1.099c.017.118.017.238.002.354V49.65c.103.711-.38 1.37-1.077 1.473a1.18 1.18 0 0 1-.37 0h-3.103a1.864 1.864 0 0 1-1.102-.29 1.675 1.675 0 0 1-.552-1.103l-.495-2.56a22.602 22.602 0 0 1-13.76 5.059 10.256 10.256 0 0 1-7.917-2.927 11.761 11.761 0 0 1-2.742-8.272V15.535a1.295 1.295 0 0 1 1.102-1.455 1.22 1.22 0 0 1 .346.002h4.244a1.28 1.28 0 0 1 1.445 1.453v23.247a9.141 9.141 0 0 0 1.505 5.812 5.823 5.823 0 0 0 4.834 1.937 18.841 18.841 0 0 0 10.43-3.504l.075-27.492zm-38.729 35.7a1.288 1.288 0 0 1-1.458-1.096c-.02-.124-.02-.25 0-.376V26.085a8.773 8.773 0 0 0-1.382-5.425 5.192 5.192 0 0 0-4.356-1.744 20.356 20.356 0 0 0-10.669 3.294c.031.36.031.724 0 1.085v26.468a1.295 1.295 0 0 1-1.46 1.472h-4.277a1.288 1.288 0 0 1-1.458-1.096c-.02-.124-.02-.25 0-.376V26.085a8.913 8.913 0 0 0-1.363-5.425 5.235 5.235 0 0 0-4.356-1.744 19.53 19.53 0 0 0-10.61 3.216v27.63a1.296 1.296 0 0 1-1.09 1.472 1.24 1.24 0 0 1-.35.001h-4.298a1.291 1.291 0 0 1-1.44-1.472V15.64a1.279 1.279 0 0 1 1.067-1.453 1.2 1.2 0 0 1 .373 0h3.223c.392-.02.78.081 1.113.29.317.278.516.665.557 1.086l.422 2.344a23.953 23.953 0 0 1 13.586-4.824c4.507 0 7.54 1.724 9.153 5.192a24.36 24.36 0 0 1 14.372-5.192c2.84-.179 5.624.854 7.675 2.848a11.42 11.42 0 0 1 2.687 8.118v25.713a1.295 1.295 0 0 1-1.459 1.472h-4.202zM392.93 23.097c-1.775 2.039-2.663 5.3-2.663 9.782v.936c0 4.375.913 7.642 2.701 9.552a10.814 10.814 0 0 0 8.541 3.076c2.193-.03 4.37-.37 6.467-1.013a5.666 5.666 0 0 1 1.085-.21c.627 0 .932.478.932 1.433v1.91c.036.478-.063.954-.286 1.376-.3.373-.703.644-1.16.785a20.54 20.54 0 0 1-8.198 1.527c-5.707 0-9.987-1.624-12.992-4.87-3.006-3.25-4.49-7.95-4.49-14.101 0-6.152 1.541-10.832 4.642-14.176a17.076 17.076 0 0 1 13.125-5.005 21.97 21.97 0 0 1 7.609 1.376c.432.128.82.372 1.122.706.247.442.36.948.323 1.452v1.91c0 .956-.323 1.434-.932 1.434a4.533 4.533 0 0 1-1.16-.21c-1.94-.57-3.953-.86-5.973-.86-3.994.134-6.886 1.146-8.674 3.19h-.019zm-18.534-7.01c.686-.1 1.323.381 1.42 1.073.017.113.02.229.004.344V50.8a1.264 1.264 0 0 1-1.424 1.436h-4.178a1.257 1.257 0 0 1-1.407-1.09 1.188 1.188 0 0 1 .002-.346V17.523a1.246 1.246 0 0 1 1.405-1.417l4.178-.02zm1.244-13.851c1.598 1.88 1.598 4.692 0 6.572a5.063 5.063 0 0 1-6.63 0c-1.621-1.868-1.621-4.704 0-6.572a5.063 5.063 0 0 1 6.63 0z"/></svg>