<svg version="1.1" id="Layer_1" xmlns="http://www.w3.org/2000/svg" xmlns:xlink="http://www.w3.org/1999/xlink" x="0px" y="0px" viewBox="0 0 291.6 93" style="enable-background:new 0 0 291.6 93;" xml:space="preserve">
 <style type="text/css">
  .st0{fill-rule:evenodd;clip-rule:evenodd;fill:#0E366A;}
 </style>
 <g>
  <path class="st0" d="M179.5,12.5L179.5,12.5c-1.6,0-2.9,1.3-2.9,2.9c0,1.6,1.3,2.9,2.9,2.9h0h0c1.1,0.1,2.1,0.4,3,0.9
		c0.5,0.3,0.8,0.8,0.8,1.3V68c0,0,0,0,0,0c0,0.1,0,0.1,0,0.2c0,0.3,0,0.5-0.1,0.8c0,0.2,0,0.3,0,0.5c-0.1,1.3-0.7,2.3-1.6,3.2
		c-2,1.8-5.1,1.6-6.9-0.4c-5.6-6.3-13.8-15.6-21.3-24.1c2.3-1.3,4.4-2.9,6.1-4.9c6.8-6.9,6.8-18-0.1-24.9c-0.4-0.4-0.8-0.8-1.3-1.1
		c-0.1-0.1-0.1-0.1-0.2-0.1c-2.9-2.3-7.2-3.3-9.6-3.5c-0.1,0-0.3,0-0.4,0c-2.2,0-60.3-1.1-60.4-1.1c0,0-0.1,0-0.1,0
		c-1.6,0-2.8,1.3-2.8,2.9c0,1.6,1.3,2.9,2.8,2.9h0h0.2c1.6,0.1,3,0.7,4.3,1.8c0.6,0.5,1,1.2,1.4,1.9c0.1,0.2,0.2,0.5,0.2,0.7
		C93.4,29.2,93,54.8,93,54.8c-10.4-9.5-34.5-31.7-29.7-27.3C57.5,22.1,49,14.3,47.9,13.4c0,0-0.2-0.2-1.6-1.4
		c-1.4-1.3-3.5-1.2-4.8,0.2c-0.6,0.6-0.9,1.3-0.9,2.2l0,0.5l-0.9,28.5l-0.8,25.6c0,0,0,0.1,0,0.1c0,0.6-0.1,1.2-0.3,1.7
		c-0.4,0.7-0.9,1.4-1.4,1.9c-1.2,1.1-2.5,1.7-4.1,1.8c-1.6-0.1-2.9-0.7-4.1-1.8c-0.6-0.5-1-1.2-1.4-1.9c-0.2-0.5-0.3-1-0.3-1.5V11.5
		c0-2,1.6-3.6,3.6-3.6c26.2-0.2,234.6-1.4,252.9-1.5c1.4-1,1.7-2.9,0.7-4.3c-0.2-0.3-0.4-0.5-0.7-0.7c-1.3,0-280-1.3-280-1.3
		C3.6,0,3.4,0,3.2,0C1.6,0,0.3,1.4,0.3,3c0,1.5,1,2.7,2.2,3c1,0.4,1.9,0.8,2.9,1.3C6.3,7.8,7,8.3,7.8,8.9c0,0,0,0,0,0
		c0.8,0.8,1.6,2,1.7,4l0,0V68c0,0.1,0,0.1,0,0.2c0,0.3,0,0.5-0.1,0.8c0,0.6-0.1,1.2-0.3,1.7c-0.4,0.7-0.9,1.4-1.4,1.9
		c-1.2,1.1-2.6,1.7-4.3,1.8H3.2h0c-1.6,0-2.8,1.3-2.8,2.9c0,1.6,1.3,2.9,2.8,2.9h0h11.8H48h11.8h0c1.6,0,2.8-1.3,2.8-2.9
		c0-1.6-1.3-2.9-2.8-2.9h0h-0.3c-1.6-0.1-3-0.7-4.3-1.8c-0.6-0.5-1-1.2-1.4-1.9c-0.2-0.4-0.3-0.8-0.3-1.2c-0.2-6.1-1-30.8-1-30.8
		c17.2,15.8,35.2,32.4,39.4,36.2l5.7,5.3c2.2,2,5.6,1.9,7.6-0.3c1-1,1.4-2.2,1.4-3.6V21.7c0-1.9,1.6-3.5,3.5-3.5h3.6
		c1.8,0,3.3,1.5,3.3,3.3v47.3c0,0,0,0.1,0,0.1c0,0.6-0.1,1.2-0.2,1.7c-0.3,0.7-0.7,1.4-1.1,1.9c-1,1.1-2,1.7-3.3,1.8h0h0
		c-1.6,0-2.8,1.3-2.8,2.9c0,1.6,1.3,2.9,2.8,2.9h0h6.5h21.9h0h0.1c1.6,0,2.9-1.3,2.9-2.9c0-1.6-1.3-2.9-2.9-2.9c0,0-0.1,0-0.1,0v0
		h-0.5c-1.6-0.1-3-0.7-4.3-1.8c-0.6-0.5-1-1.2-1.4-1.9c-0.2-0.5-0.3-1.1-0.3-1.7c0-0.1,0-0.1,0-0.2V55.3h5.9
		c6.9,7.8,13.3,15,17.3,19.6l0.5,0.5c2.8,3.1,6.4,4.8,10.6,4.8h5.6h62.5h0h0h0.4v0c1.4-0.2,2.4-1.4,2.4-2.8c0-1.6-1.3-2.9-2.9-2.9
		c0,0-0.1,0-0.1,0c-0.1,0-0.2,0-0.3,0c-0.2,0-0.3-0.1-0.5-0.2c-0.4-0.3-0.5-0.9-0.2-1.3c0.8-1.1,10.5-14,10.5-14l16.5,26.2
		c0,0-259.9,1.5-261.2,1.5c-1.4,1.1-1.6,3-0.6,4.4c0.2,0.2,0.4,0.4,0.6,0.6c1.3,0,287.6,1.3,287.6,1.3v0c1.5-0.1,2.7-1.4,2.7-3
		c0-1.4-1-2.7-2.3-2.9c-1-0.4-1.9-0.8-2.9-1.3c-0.8-0.4-1.5-0.9-2.3-1.5c0,0,0,0,0,0c-0.2-0.2-0.4-0.4-0.5-0.6l0,0l-26.7-39.2
		l17-22.8h0c0.1-0.1,0.1-0.2,0.2-0.3l0.1-0.1c0.3-0.4,0.7-0.8,1-1.1c1.4-1.1,2.9-1.7,4.7-1.8h0.2h0c1.6,0,2.8-1.3,2.8-2.9
		c0-1.6-1.3-2.9-2.8-2.9h0h-21.8h0c-1.6,0-2.8,1.3-2.8,2.9c0,1.6,1.3,2.9,2.8,2.9h0h0.2c0.2,0,0.3,0,0.5,0c0.2,0,0.4,0.1,0.5,0.2
		c0.5,0.4,0.6,1,0.2,1.5c-3.6,4.8-10.2,13.7-10.2,13.7l-9.5-13.9l-0.2-0.4c-0.1-0.1-0.1-0.3-0.1-0.4c0-0.4,0.3-0.8,0.7-0.8
		c1.5,0,2.8-1.3,2.8-2.9c0-1.6-1.3-2.9-2.9-2.9h0h-24.7h0c-1.6,0-2.9,1.3-2.9,2.9c0,1.6,1.3,2.9,2.9,2.9h0h0.3
		c2,0.1,3.6,0.7,5.1,1.8c0.4,0.3,0.7,0.6,1,0.9L239,47.9l-17.5,23.4l-0.4,0.5c-1.4,1.8-3.3,2.8-5.6,2.8h-7.3v0c0,0-0.1,0-0.1,0
		c-1.8,0-3.3-0.6-4.6-1.8c-0.6-0.5-1-1.2-1.4-1.9c-0.2-0.5-0.3-1.1-0.3-1.7c0-0.1,0-0.1,0-0.2v-48v-0.3c0-0.6,0.3-1.1,0.8-1.4
		c0.9-0.6,2-0.9,3.1-0.9h0.3v0c0,0,0,0,0.1,0l0,0c1.4-0.2,2.4-1.4,2.4-2.8c0-1.5-1.1-2.7-2.5-2.8v0h-0.3h0h0H179.5z M137.3,45h-3.1
		V20.9c1.7,0,6.8,0.2,9.9,1.5c1.6,0.8,3,2,4,3.3c1.3,2.3,2,4.8,2,7.3c-0.1,2.5-0.7,5-2,7.3c-1,1.4-2.4,2.5-4,3.3
		C142.1,44.4,139.4,44.8,137.3,45">
  </path>
 </g>
</svg>