<?xml version="1.0" encoding="UTF-8"?><svg id="Layer_1" xmlns="http://www.w3.org/2000/svg" viewBox="0 0 576.77 53.67"><defs><style>.cls-1{fill:#eb1700;}</style></defs><path class="cls-1" d="m57.04,49.2c-5.65,0-8.8-5.35-8.8-15.03s3.15-15.03,8.8-15.03,8.8,5.28,8.8,15.03-3.15,15.03-8.8,15.03m0-34.09c-11.51,0-17.89,8.58-17.89,19.06s6.38,19.06,17.89,19.06,17.89-8.58,17.89-19.06-6.38-19.06-17.89-19.06m79.99,0c-5.43,0-8.43,2.35-10.12,5.35h-.44v-4.62h-8.65v36.66h8.65v-23.68c0-5.42,2.79-8.58,7.26-8.58s6.23,2.86,6.23,7.19v25.07h8.65v-25.15c0-7.55-3.96-12.24-11.58-12.24m31.23,0c-7.99,0-14,3.37-14,10.56,0,6.09,4.18,9.39,8.87,10.56l7.33,1.83c3.89.95,5.65,2.35,5.65,5.43,0,3.74-2.64,5.87-7.26,5.87-4.99,0-7.55-2.42-8.36-8.5l-7.77,2.2c.44,6.31,6.31,10.19,15.18,10.19,9.9,0,15.25-4.62,15.25-11.95,0-6.89-4.77-9.75-9.75-11l-7.04-1.76c-3.52-.88-5.06-2.49-5.06-4.84,0-2.93,2.49-4.69,6.23-4.69,4.4,0,7.11,2.42,7.48,7.04l7.33-2.2c-.88-5.13-5.94-8.72-14.08-8.72m36.36,34.09c-5.65,0-8.8-5.35-8.8-15.03s3.15-15.03,8.8-15.03,8.8,5.28,8.8,15.03-3.15,15.03-8.8,15.03m0-34.09c-11.51,0-17.89,8.58-17.89,19.06s6.38,19.06,17.89,19.06,17.89-8.58,17.89-19.06-6.38-19.06-17.89-19.06m42.23,0c-5.43,0-8.43,2.35-10.12,5.35h-.44v-4.62h-8.65v36.66h8.65v-23.68c0-5.42,2.79-8.58,7.26-8.58s6.23,2.86,6.23,7.19v25.07h8.65v-25.15c0-7.55-3.96-12.24-11.58-12.24m128.52,34.09c-5.65,0-8.8-5.35-8.8-15.03s3.15-15.03,8.8-15.03,8.8,5.28,8.8,15.03-3.15,15.03-8.8,15.03m0-34.09c-11.51,0-17.89,8.58-17.89,19.06s6.38,19.06,17.89,19.06,17.89-8.58,17.89-19.06-6.38-19.06-17.89-19.06m79.99,0c-5.43,0-8.43,2.35-10.12,5.35h-.44v-4.62h-8.65v36.66h8.65v-23.68c0-5.42,2.79-8.58,7.26-8.58s6.23,2.86,6.23,7.19v25.07h8.65v-25.15c0-7.55-3.96-12.24-11.58-12.24m31.23,0c-7.99,0-14,3.37-14,10.56,0,6.09,4.18,9.39,8.87,10.56l7.33,1.83c3.89.95,5.65,2.35,5.65,5.43,0,3.74-2.64,5.87-7.26,5.87-4.99,0-7.55-2.42-8.36-8.5l-7.77,2.2c.44,6.31,6.31,10.19,15.18,10.19,9.9,0,15.25-4.62,15.25-11.95,0-6.89-4.77-9.75-9.75-11l-7.04-1.76c-3.52-.88-5.06-2.49-5.06-4.84,0-2.93,2.49-4.69,6.23-4.69,4.4,0,7.11,2.42,7.48,7.04l7.33-2.2c-.88-5.13-5.94-8.72-14.08-8.72m36.36,34.09c-5.65,0-8.8-5.35-8.8-15.03s3.15-15.03,8.8-15.03,8.8,5.28,8.8,15.03-3.15,15.03-8.8,15.03m0-34.09c-11.51,0-17.89,8.58-17.89,19.06s6.38,19.06,17.89,19.06,17.89-8.58,17.89-19.06-6.38-19.06-17.89-19.06m42.23,0c-5.43,0-8.43,2.35-10.12,5.35h-.44v-4.62h-8.65v36.66h8.65v-23.68c0-5.42,2.79-8.58,7.26-8.58s6.23,2.86,6.23,7.19v25.07h8.65v-25.15c0-7.55-3.96-12.24-11.58-12.24M34.02,1.17h-9.09v37.9c0,6.16-2.35,9.82-7.92,9.82s-7.92-3.89-7.92-10.56v-7.04l-9.09,2.27v3.15c0,9.6,4.77,16.94,17.01,16.94s17.01-7.33,17.01-16.94V1.17m54.69,0h-8.65v51.32h8.65v-23.68c0-5.42,2.79-8.58,7.26-8.58s6.23,2.86,6.23,7.19v25.07h8.65v-25.15c0-7.55-3.96-12.24-11.58-12.24-5.43,0-8.43,2.35-10.12,5.35h-.44V1.17m263.64,0h-9.09v37.9c0,6.16-2.35,9.82-7.92,9.82s-7.92-3.89-7.92-10.56v-7.04l-9.09,2.27v3.15c0,9.6,4.77,16.94,17.01,16.94s17.01-7.33,17.01-16.94V1.17m54.69,0h-8.65v51.32h8.65v-23.68c0-5.42,2.79-8.58,7.26-8.58s6.23,2.86,6.23,7.19v25.07h8.65v-25.15c0-7.55-3.96-12.24-11.58-12.24-5.43,0-8.43,2.35-10.12,5.35h-.44V1.17m-120.09,47.14c-7.04,0-11.36-5.72-11.36-11.8,0-3.81,1.69-7.33,4.47-9.31l16.57,18.11c-3.08,1.83-6.53,3.01-9.68,3.01m16.13-9.02l-14.37-15.84c2.57-1.03,5.06-1.39,7.11-1.39,5.94,0,9.6,3.45,9.6,9.39,0,2.64-.73,5.35-2.35,7.84m-16.35-17.96l-3.15-3.52c-2.79-3.08-3.59-4.99-3.59-7.26,0-4.25,2.71-6.67,6.96-6.67s6.89,2.49,6.89,7.04c0,4.18-2.05,8.14-7.11,10.41m.44-21.33c-10.12,0-15.1,5.65-15.1,12.68,0,3.81,1.61,7.63,5.87,12.24l.07.15c-7.18,3.45-10.48,9.02-10.48,14.74,0,7.55,5.79,13.86,14.74,13.86,5.13,0,11.14-2.13,16.57-5.94l4.4,4.77h11.51v-.37l-9.38-10.34c3.96-4.69,6.23-9.82,6.23-14.3,0-5.57-3.74-9.31-9.6-9.31-3.08,0-6.53.88-8.8,1.76l-.15-.29c5.57-3.01,7.92-5.79,7.92-9.68,0-5.57-4.99-9.97-13.78-9.97"/></svg>