<?xml version="1.0" encoding="UTF-8" standalone="no"?>
<!-- Created with Inkscape (http://www.inkscape.org/) -->

<svg
   xmlns:dc="http://purl.org/dc/elements/1.1/"
   xmlns:cc="http://creativecommons.org/ns#"
   xmlns:rdf="http://www.w3.org/1999/02/22-rdf-syntax-ns#"
   xmlns:svg="http://www.w3.org/2000/svg"
   xmlns="http://www.w3.org/2000/svg"
   xmlns:sodipodi="http://sodipodi.sourceforge.net/DTD/sodipodi-0.dtd"
   xmlns:inkscape="http://www.inkscape.org/namespaces/inkscape"
   width="152.76527"
   height="53.274342"
   viewBox="0 0 40.419143 14.095502"
   version="1.1"
   id="svg706"
   inkscape:version="0.92.0 r15299"
   sodipodi:docname="murata.svg">
  <defs
     id="defs700" />
  <sodipodi:namedview
     id="base"
     pagecolor="#ffffff"
     bordercolor="#666666"
     borderopacity="1.0"
     inkscape:pageopacity="0.0"
     inkscape:pageshadow="2"
     inkscape:zoom="5.9104434"
     inkscape:cx="75.882632"
     inkscape:cy="26.137172"
     inkscape:document-units="mm"
     inkscape:current-layer="layer1"
     showgrid="false"
     fit-margin-top="0"
     fit-margin-left="0"
     fit-margin-right="0"
     fit-margin-bottom="0"
     units="px"
     inkscape:window-width="1280"
     inkscape:window-height="744"
     inkscape:window-x="-4"
     inkscape:window-y="-4"
     inkscape:window-maximized="1" />
  <metadata
     id="metadata703">
    <rdf:RDF>
      <cc:Work
         rdf:about="">
        <dc:format>image/svg+xml</dc:format>
        <dc:type
           rdf:resource="http://purl.org/dc/dcmitype/StillImage" />
        <dc:title></dc:title>
      </cc:Work>
    </rdf:RDF>
  </metadata>
  <g
     inkscape:label="Layer 1"
     inkscape:groupmode="layer"
     id="layer1"
     transform="translate(-79.70831,-234.63544)">
    <g
       id="g718"
       transform="translate(0.13229285,-0.13228772)">
      <path
         d="m 119.83252,239.76019 c 0.01,-0.022 0.0142,-0.0473 0.0142,-0.0726 0,-0.1005 -0.0824,-0.18348 -0.1848,-0.18348 l -0.15433,0.001 -2.94412,-0.004 c -1.37567,0 -2.49061,1.1151 -2.49061,2.49061 0,0.44855 0.11547,0.87671 0.32858,1.23763 0.0164,0.0264 0.0275,0.0621 0.0275,0.0958 0,0.10268 -0.0829,0.1845 -0.18479,0.1845 l -1.03437,-6.1e-4 v -6.3e-4 c -0.40024,-0.0353 -0.71439,-0.37045 -0.71439,-0.78062 0,-0.0496 0.006,-0.10058 0.0112,-0.13222 0.25979,-0.92153 0.76588,-2.69116 0.76588,-2.69116 l 0.0731,-0.2615 c 0.0188,-0.082 0.0675,-0.13424 0.1551,-0.13424 l 0.90284,-0.002 c 0.0776,0 0.14184,-0.0461 0.171,-0.1116 0,0 0.0866,-0.29562 0.0866,-0.31702 0,-0.10066 -0.0823,-0.18356 -0.1845,-0.18356 l -0.67042,0.002 c -0.10244,0 -0.1848,-0.082 -0.1848,-0.18473 0,-0.0242 0.41451,-1.46904 0.41451,-1.46904 0,0 0.0515,-0.17309 0.0515,-0.19829 0,-0.10175 -0.0824,-0.1831 -0.18395,-0.1831 l -1.5417,0.003 c -0.08,0 -0.14937,0.0517 -0.1748,0.12253 h 0.001 l -0.50998,1.77078 c -0.0205,0.0807 -0.0925,0.13859 -0.17921,0.13859 l -0.86167,-0.002 c -0.0832,0 -0.15393,0.0555 -0.17635,0.13129 0,0 -0.081,0.28864 -0.081,0.29616 0,0.10276 0.082,0.18473 0.18481,0.18473 l 0.66065,-10e-4 c 0.10151,0 0.18247,0.082 0.18247,0.18247 0,0.0116 -0.50159,1.76939 -0.78403,2.75847 -0.0147,0.0593 -0.0362,0.16022 -0.0523,0.29291 -0.0275,0.26158 0.14525,0.4864 0.14525,0.4864 0.0214,0.0291 0.0343,0.0665 0.0343,0.10601 0,0.0951 -0.0716,0.16913 -0.1627,0.18022 h -1.3531 v -1.5e-4 l -0.0415,1.5e-4 c -0.20442,0 -0.38689,-0.16603 -0.38689,-0.3682 0,-0.0329 0.012,-0.0599 0.0203,-0.0895 l 0.49678,-1.73666 0.41157,-1.43833 c 0,0 0.044,-0.16379 0.044,-0.1869 0,-0.1005 -0.0823,-0.18364 -0.18356,-0.18364 l -0.26267,0.001 -2.83485,-0.005 c -1.37614,0 -2.49054,1.11626 -2.49054,2.49239 0,0.45166 0.1209,0.87593 0.332,1.24306 0,0 0.0175,0.06 0.0175,0.0853 0,0.10268 -0.0703,0.18085 -0.17217,0.18085 l -1.22002,0.003 c -0.20318,0 -0.36929,-0.16619 -0.36929,-0.36945 0,-0.032 0.004,-0.0631 0.0126,-0.0933 l 0.0163,-0.0653 h 0.005 l 0.52765,-1.81925 c 0.0286,-0.0977 0.0552,-0.2014 0.0552,-0.30865 0,-0.68384 -0.46135,-0.62832 -0.59799,-0.81211 0,0 -0.0938,-0.0821 0.10772,-0.15316 0.75503,-0.26585 1.34992,-0.82444 1.64314,-1.54139 0.13835,-0.32153 0.21783,-0.67462 0.21783,-1.05074 0,-1.25065 -0.96108,-2.27641 -2.18506,-2.38149 -0.0841,-0.009 -0.16916,-0.0137 -0.25563,-0.0137 l -0.76015,-6.2e-4 v 0.003 l -3.407099,-0.003 c -8.47e-4,0 -0.0016,3.9e-4 -0.0025,4.7e-4 l -0.574805,-5.5e-4 c -0.09058,0 -0.165958,0.0659 -0.181778,0.15115 l -0.108726,0.4083 c 0,0.10167 0.08275,0.18364 0.184803,0.18364 l 0.849254,-0.003 c 0.07631,0 0.14184,0.0465 0.17007,0.1126 0.0088,0.0216 0.01411,0.045 0.01411,0.0696 0,0.009 -0.526102,1.84872 -1.048637,3.67317 h 0.0014 c -0.517958,1.8084 -1.033513,3.60633 -1.033513,3.60633 -0.06444,0.23296 -0.278871,0.40334 -0.532849,0.40334 l -0.443511,0.003 c -0.20357,0 -0.382168,-0.1658 -0.368985,-0.36921 0.0107,-0.16813 0.970001,-3.43657 0.970001,-3.45038 0,-0.1005 -0.08282,-0.18348 -0.184958,-0.18348 h -1.537204 c -0.09097,0 -0.166424,0.0648 -0.181546,0.15223 l -0.981245,3.40462 c -0.076,0.18209 -0.232807,0.30679 -0.41443,0.30679 l -0.202484,-0.001 c -0.170223,0 -0.302369,-0.16526 -0.302369,-0.37023 0,-0.0319 0.0028,-0.0666 0.0088,-0.0979 l 0.02009,-0.0844 0.214194,-0.70602 0.474996,-1.6526 c 0.0016,0 0.01753,-0.084 0.01753,-0.16371 0,-0.43366 -0.351226,-0.78419 -0.784035,-0.78419 -0.121754,0 -0.236296,0.028 -0.33874,0.0773 l -1.688816,0.77721 c -0.06026,0.0292 -0.114464,0.0703 -0.102056,0.16379 0.0092,0.0714 0.06716,0.20171 0.06716,0.20171 0.03327,0.0461 0.0912,0.0957 0.149594,0.0776 0.09632,-0.0324 0.388838,-0.16992 0.463597,-0.17868 0.101436,-0.0104 0.184725,0.0831 0.184725,0.18527 0,0.0197 -0.07197,0.28414 -0.07197,0.28414 l -0.411405,1.43872 c -0.01644,0.0638 -0.01815,0.12966 -0.02544,0.19783 -0.02761,0.26158 0.145252,0.48655 0.145252,0.48655 0.0214,0.0291 0.03428,0.0663 0.03428,0.10601 0,0.10268 -0.08267,0.1845 -0.184493,0.1845 l -1.29897,-9.5e-4 c -0.203724,0 -0.368597,-0.16619 -0.368597,-0.36945 0,-0.0333 0.0045,-0.0671 0.01303,-0.0976 l 0.722536,-2.50178 c 0.02233,-0.0737 0.03986,-0.16712 0.03986,-0.24676 0,-0.43367 -0.351071,-0.78443 -0.783957,-0.78443 -0.121367,0 -0.23459,0.0271 -0.336569,0.0764 l -1.258178,0.58931 -0.236374,0.11105 c -0.02474,0.0115 -0.05917,0.023 -0.0891,0.023 -0.08872,0 -0.165958,-0.067 -0.182709,-0.15215 -0.07491,-0.36332 -0.387675,-0.64755 -0.773255,-0.64755 -0.121134,0 -0.235754,0.0271 -0.337733,0.0764 l -1.342087,0.62994 -0.14975,0.0704 c -0.0252,0.0115 -0.0601,0.023 -0.08957,0.023 -0.08965,0 -0.164795,-0.0626 -0.182166,-0.14773 -0.07561,-0.36666 -0.386123,-0.65197 -0.773798,-0.65197 -0.121754,0 -0.236684,0.0271 -0.338353,0.0776 l -0.0089,0.002 -1.925267,0.89253 c -0.06429,0.0281 -0.113224,0.0934 -0.108803,0.16767 0.0041,0.0599 0.06204,0.1682 0.06204,0.1682 0.0297,0.0627 0.09353,0.10601 0.167121,0.10601 0.02854,0 0.05522,-0.007 0.07941,-0.0181 l 0.543551,-0.25933 c 0.0242,-0.0121 0.05188,-0.0188 0.08104,-0.0188 0.101901,0 0.182476,0.0831 0.184105,0.18527 0.0011,0.0593 -0.651811,2.29161 -0.651811,2.29161 -0.06406,0.23421 -0.278639,0.40614 -0.533392,0.40614 l -0.398377,-0.003 c -0.08329,0 -0.153084,0.055 -0.176194,0.13082 0,0 -0.06809,0.23172 -0.07724,0.29338 -0.01675,0.11361 0.08275,0.18464 0.184183,0.18464 h 2.157761 l 0.001,-0.002 0.328814,-7.6e-4 c 0.08003,0 0.149362,-0.0516 0.174798,-0.12253 h -0.0013 l 0.831496,-2.88674 c 0.0094,-0.0561 0.04731,-0.10927 0.09508,-0.13571 l 0.439327,-0.20769 0.238855,-0.11276 c 0.02357,-0.0104 0.0501,-0.0165 0.07809,-0.0165 0.102445,0 0.185113,0.083 0.185113,0.18364 0,0.017 -0.0029,0.0307 -0.0068,0.0445 -0.241647,0.89508 -0.877483,3.06355 -0.877483,3.07472 0,0.10042 0.08282,0.18348 0.184957,0.18348 h 1.537205 c 0.09097,0 0.166423,-0.0648 0.181546,-0.15223 l 0.841422,-2.91945 c 0.01791,-0.0325 0.04351,-0.0608 0.07414,-0.0777 l 0.488413,-0.2308 0.189223,-0.0896 c 0.0235,-0.0104 0.04987,-0.0165 0.07879,-0.0165 0.101048,0 0.201864,0.0841 0.183794,0.18364 -0.01861,0.10632 -0.816683,2.92133 -0.816683,2.92133 0,0 -0.05149,0.17309 -0.05149,0.19837 0,0.10183 0.08236,0.18302 0.184028,0.18302 l 0.93169,-0.002 h 9.70125 c 0.497874,0 0.912924,-0.30834 1.051041,-0.7617 l 0.800631,-2.80228 c 0.0214,-0.0781 0.09283,-0.13571 0.17759,-0.13571 h 0.693999 0.785585 c 0.2038,0 0.36937,0.16479 0.36937,0.36875 0,0.0247 -0.003,0.045 -0.007,0.0703 l -0.533,1.8405 c -0.0286,0.0978 -0.044,0.2028 -0.044,0.31168 0,0.61102 0.4957,1.1068 1.10672,1.1068 h 0.89889 l -0.29415,0.001 17.06187,6e-4 c 0.3831,0 0.45794,-0.0636 0.47484,-0.14657 0,0 0.0731,-0.26553 0.0731,-0.27724 0,-0.10268 -0.0824,-0.18503 -0.18457,-0.18503 l -0.42001,0.002 c -0.20373,0 -0.38674,-0.16619 -0.38674,-0.36945 0,-0.032 0.0121,-0.0587 0.0197,-0.0901 l 0.59792,-2.08944 0.29786,-1.0398 z m -17.33035,-3.00198 -5.5e-4,0.32975 c 0,0.72277 -0.33223,1.36574 -0.84988,1.79265 -0.38944,0.30191 -0.877,0.48345 -1.40791,0.48345 v -0.002 l -0.17232,0.002 -0.396204,0.001 c -0.101359,0 -0.184105,-0.0829 -0.184105,-0.18465 l 0.965119,-3.39176 c 0.0175,-0.0845 0.092,-0.14634 0.1803,-0.14634 l 0.74627,-0.001 v 0.006 h 0.002 c 0.61792,0 1.11734,0.49345 1.11734,1.11067 m 5.18712,3.54382 c -0.0154,0.0566 -0.24374,0.86399 -0.24374,0.86399 l -0.51385,1.79863 c -0.0654,0.23358 -0.27949,0.40311 -0.533,0.40311 l -0.24173,-10e-4 c -0.20326,0 -0.361,-0.16526 -0.361,-0.37023 0,-0.0264 0.003,-0.0547 0.008,-0.0816 l 0.62894,-2.21259 c 0.0889,-0.33626 0.39465,-0.58349 0.75844,-0.58349 h 0.31338 c 0.10229,0 0.2121,0.0857 0.18473,0.1834 m 10.05868,0.002 c 0,0.0176 -0.18589,0.66438 -0.18589,0.66438 l -0.57473,2.0077 c -0.0692,0.2273 -0.27957,0.3914 -0.52866,0.3914 l -0.2418,-0.001 c -0.20326,0 -0.36099,-0.16526 -0.36099,-0.37023 0,-0.0286 0.003,-0.0592 0.009,-0.0878 l 0.62738,-2.20522 c 0.0889,-0.33525 0.39458,-0.58202 0.75789,-0.58202 l 0.31315,-0.002 c 0.10176,0 0.18481,0.0824 0.18481,0.18457"
         style="display:inline;fill:#e51636;fill-opacity:1;fill-rule:nonzero;stroke:none;stroke-width:0.07755043"
         id="path134"
         inkscape:connector-curvature="0" />
      <path
         inkscape:connector-curvature="0"
         id="path136"
         style="display:inline;fill:#3b3839;fill-opacity:1;fill-rule:nonzero;stroke:none;stroke-width:0.07755043"
         d="m 81.074201,247.07047 h -0.300275 v 1.63538 h 0.300275 z m 2.094482,1.63538 v -1.63538 h -0.297794 v 0.91075 c 0,0.072 0,0.16627 0.005,0.23824 h -0.005 c -0.03963,-0.0671 -0.0843,-0.12905 -0.161305,-0.22839 l -0.712223,-0.9206 H 81.6922 v 1.63538 h 0.300198 v -0.96286 c 0,-0.077 -0.0024,-0.16379 -0.0074,-0.21846 h 0.005 c 0.04467,0.0696 0.09182,0.13152 0.161305,0.22342 l 0.739443,0.9579 z m 2.094482,0 v -1.63538 h -0.297871 v 0.91075 c 0,0.072 0,0.16627 0.005,0.23824 h -0.005 c -0.03963,-0.0671 -0.08437,-0.12905 -0.161228,-0.22839 l -0.712223,-0.9206 h -0.305238 v 1.63538 h 0.300275 v -0.96286 c 0,-0.077 -0.0026,-0.16379 -0.0075,-0.21846 h 0.005 c 0.04475,0.0696 0.09182,0.13152 0.161305,0.22342 l 0.739598,0.9579 z m 2.21104,-0.81645 c 0,-0.22838 -0.06949,-0.4318 -0.205896,-0.58069 -0.146493,-0.16131 -0.364875,-0.25313 -0.627926,-0.25313 -0.248084,0 -0.454135,0.0893 -0.600473,0.23816 -0.151378,0.15386 -0.235753,0.36728 -0.235753,0.61055 0,0.25553 0.09174,0.47647 0.25801,0.62537 0.143934,0.13152 0.340059,0.20101 0.578216,0.20101 0.24568,0 0.451731,-0.0869 0.600551,-0.23583 0.151456,-0.1489 0.233271,-0.36472 0.233271,-0.60544 m -0.320128,0.005 c 0,0.36984 -0.213419,0.5907 -0.516098,0.5907 -0.305239,0 -0.518657,-0.22086 -0.518657,-0.5907 0,-0.3672 0.213418,-0.58814 0.518657,-0.58814 0.312606,0 0.516098,0.23079 0.516098,0.58814 m 2.23353,-0.82142 h -0.307798 l -0.389613,0.93061 c -0.04467,0.10423 -0.07693,0.19612 -0.106632,0.2829 h -0.005 c -0.02986,-0.0893 -0.06708,-0.19108 -0.104305,-0.29035 l -0.354794,-0.92316 h -0.327651 l 0.662591,1.64283 h 0.215979 z m 1.590327,1.63298 -0.657628,-1.64282 h -0.218382 l -0.635293,1.64282 h 0.295234 l 0.151379,-0.40946 h 0.583179 l 0.161382,0.40946 z m -0.575735,-0.65514 h -0.397058 l 0.141374,-0.37969 c 0.0273,-0.0769 0.04963,-0.14145 0.05956,-0.19861 h 0.0026 c 0.01233,0.0547 0.03226,0.12168 0.06196,0.20357 z m 2.034846,-0.98024 h -1.295402 v 0.25064 h 0.474066 v 1.38474 h 0.302679 v -1.38474 h 0.446768 z m 1.930464,0.81893 c 0,-0.22838 -0.06949,-0.4318 -0.206053,-0.58069 -0.146336,-0.16131 -0.364719,-0.25313 -0.62777,-0.25313 -0.248239,0 -0.454136,0.0893 -0.600628,0.23816 -0.151379,0.15386 -0.235754,0.36728 -0.235754,0.61055 0,0.25553 0.09182,0.47647 0.258166,0.62537 0.143856,0.13152 0.339903,0.20101 0.578216,0.20101 0.245679,0 0.451576,-0.0869 0.600551,-0.23583 0.1513,-0.1489 0.233272,-0.36472 0.233272,-0.60544 m -0.320129,0.005 c 0,0.36984 -0.213419,0.5907 -0.516254,0.5907 -0.305238,0 -0.518657,-0.22086 -0.518657,-0.5907 0,-0.3672 0.213419,-0.58814 0.518657,-0.58814 0.312762,0 0.516254,0.23079 0.516254,0.58814 m 2.072071,0.81156 c -0.250643,-0.41698 -0.414353,-0.69981 -0.488802,-0.74208 v -0.002 c 0.153783,-0.0645 0.30268,-0.21101 0.30268,-0.4294 0,-0.25056 -0.158746,-0.4615 -0.58318,-0.4615 H 94.9085 v 1.63538 h 0.300275 v -0.64529 h 0.13897 c 0.06196,0.0199 0.176195,0.22342 0.429242,0.64529 z m -0.488802,-1.13906 c 0,0.1489 -0.116636,0.26554 -0.270572,0.26554 h -0.151302 v -0.50881 h 0.148898 c 0.186042,0 0.272976,0.10927 0.272976,0.24327 m 2.235857,-0.49632 h -0.300275 v 1.63538 h 0.300275 z m 2.094405,1.63538 v -1.63538 h -0.297717 v 0.91075 c 0,0.072 0,0.16627 0.005,0.23824 h -0.005 c -0.03978,-0.0671 -0.08445,-0.12905 -0.161305,-0.22839 l -0.712301,-0.9206 h -0.305237 v 1.63538 h 0.300274 v -0.96286 c 0,-0.077 -0.0025,-0.16379 -0.0074,-0.21846 h 0.005 c 0.04467,0.0696 0.09182,0.13152 0.161305,0.22342 l 0.73952,0.9579 z m 2.503869,0 v -0.25072 h -0.6104 v -0.4591 h 0.52851 v -0.25064 h -0.52851 v -0.42428 h 0.52851 l 0.0819,-0.25064 h -0.91068 v 1.63538 z m 1.43941,0 v -0.25312 h -0.58566 v -1.38226 h -0.30027 v 1.63538 z m 1.38226,0 v -0.25072 h -0.61047 v -0.4591 h 0.5285 v -0.25064 h -0.5285 v -0.42428 h 0.5285 l 0.082,-0.25064 h -0.91075 v 1.63538 z m 1.83128,-0.12904 -0.0819,-0.2159 c -0.124,0.067 -0.25305,0.10911 -0.40194,0.10911 -0.33758,0 -0.54596,-0.25553 -0.54596,-0.58558 0,-0.3078 0.18853,-0.58318 0.56829,-0.58318 0.14642,0 0.27794,0.0347 0.41443,0.11664 l 0.002,-0.27306 c -0.0968,-0.0545 -0.25072,-0.0893 -0.42443,-0.0893 -0.53843,0 -0.88594,0.37961 -0.88594,0.84871 0,0.46647 0.30284,0.82638 0.8239,0.82638 0.17627,0 0.34991,-0.0447 0.53106,-0.15386 m 1.68254,-1.50634 h -1.29541 v 0.25064 h 0.47407 v 1.38474 h 0.30276 v -1.38474 h 0.44669 z m 1.66764,1.63538 c -0.25056,-0.41698 -0.41435,-0.69981 -0.48887,-0.74208 v -0.002 c 0.15386,-0.0645 0.30275,-0.21101 0.30275,-0.4294 0,-0.25056 -0.15882,-0.4615 -0.58325,-0.4615 h -0.44165 v 1.63538 h 0.30019 v -0.64529 h 0.13905 c 0.062,0.0199 0.1762,0.22342 0.42924,0.64529 z m -0.48887,-1.13906 c 0,0.1489 -0.11664,0.26554 -0.27058,0.26554 H 109.557 v -0.50881 h 0.14898 c 0.18604,0 0.27298,0.10927 0.27298,0.24327 m 2.47897,0.32261 c 0,-0.22838 -0.0694,-0.4318 -0.20597,-0.58069 -0.14642,-0.16131 -0.3648,-0.25313 -0.62785,-0.25313 -0.24816,0 -0.45406,0.0893 -0.60055,0.23816 -0.15138,0.15386 -0.23575,0.36728 -0.23575,0.61055 0,0.25553 0.0919,0.47647 0.25809,0.62537 0.14401,0.13152 0.33998,0.20101 0.57821,0.20101 0.24568,0 0.45173,-0.0869 0.60063,-0.23583 0.15138,-0.1489 0.23319,-0.36472 0.23319,-0.60544 m -0.32012,0.005 c 0,0.36984 -0.21335,0.5907 -0.51618,0.5907 -0.30516,0 -0.51858,-0.22086 -0.51858,-0.5907 0,-0.3672 0.21342,-0.58814 0.51858,-0.58814 0.31268,0 0.51618,0.23079 0.51618,0.58814 m 2.33768,0.81156 v -1.63538 h -0.2978 v 0.91075 c 0,0.072 0,0.16627 0.005,0.23824 h -0.005 c -0.0397,-0.0671 -0.0844,-0.12905 -0.1613,-0.22839 l -0.71215,-0.9206 H 112.999 v 1.63538 h 0.3002 v -0.96286 c 0,-0.077 -0.002,-0.16379 -0.007,-0.21846 h 0.005 c 0.0447,0.0696 0.0917,0.13152 0.1613,0.22342 l 0.73945,0.9579 z m 0.91827,-1.63538 h -0.30027 v 1.63538 h 0.30027 z m 1.8958,1.50634 -0.0819,-0.2159 c -0.12401,0.067 -0.25305,0.10911 -0.40195,0.10911 -0.33758,0 -0.54595,-0.25553 -0.54595,-0.58558 0,-0.3078 0.18852,-0.58318 0.56829,-0.58318 0.14641,0 0.27794,0.0347 0.41443,0.11664 l 0.002,-0.27306 c -0.0968,-0.0545 -0.25065,-0.0893 -0.42444,-0.0893 -0.53843,0 -0.88593,0.37961 -0.88593,0.84871 0,0.46647 0.30283,0.82638 0.82389,0.82638 0.17628,0 0.34991,-0.0447 0.53107,-0.15386 m 1.51386,-0.31524 c 0,-0.50873 -0.70726,-0.49136 -0.70726,-0.79412 0,-0.10919 0.10415,-0.16619 0.23575,-0.16619 0.13393,0 0.25553,0.0446 0.38209,0.11408 l 0.005,-0.26794 c -0.0894,-0.0497 -0.22839,-0.0918 -0.4021,-0.0918 -0.34247,0 -0.53355,0.2059 -0.53355,0.4491 0,0.12664 0.0422,0.22086 0.10671,0.29283 0.19861,0.22342 0.59559,0.26553 0.59559,0.49888 0,0.13649 -0.14386,0.1886 -0.27042,0.1886 -0.15394,0 -0.2805,-0.0621 -0.36984,-0.12408 l -0.12152,0.22086 c 0.10919,0.0744 0.2729,0.1489 0.50377,0.1489 0.32253,0 0.57573,-0.18116 0.57573,-0.4691" />
    </g>
  </g>
</svg>
