<svg xmlns="http://www.w3.org/2000/svg" xmlns:xlink="http://www.w3.org/1999/xlink" width="538.689" height="720" viewBox="0 0 142.528 190.5" xmlns:v="https://vecta.io/nano"><defs><g ><path id="B" transform="rotate(18 3.157 -.5)" d="M0 0v1h.5z"/><use xlink:href="#B" height="632" width="549" transform="scale(-1 1)"/></g></defs><g transform="translate(660.882 -293.642)"><path d="M-652.03 293.642c-4.694 0-8.507 3.819-8.507 8.539l-.001 119.252c0 4.712 3.814 8.537 8.507 8.537h125.172c4.696 0 8.505-3.826 8.505-8.537V302.181c0-4.716-3.81-8.535-8.505-8.535h-125.172zm-.08 140.789c-4.847 0-8.773 4.769-8.773 10.64v28.415c0 5.888 3.925 10.656 8.773 10.656h124.978c4.849 0 8.763-4.768 8.763-10.656v-28.415c0-5.872-3.914-10.64-8.763-10.64z" clip-path="none"/><path clip-path="none" d="M-650.13 296.949c-4.131 0-7.468 3.343-7.468 7.471v113.928a7.47 7.47 0 0 0 7.468 7.471h121.035c4.135 0 7.47-3.347 7.47-7.471V304.42c0-4.129-3.335-7.471-7.47-7.471zm4.259 4.631h112.377c4.13 0 7.467 3.345 7.467 7.47v105.038c0 4.126-3.337 7.472-7.467 7.472h-112.377c-4.122 0-7.468-3.347-7.468-7.472V309.05a7.47 7.47 0 0 1 7.468-7.47zm-4.126 136.396c-4.122 0-7.462 3.342-7.462 7.466v27.441a7.46 7.46 0 0 0 7.462 7.458h121.233a7.46 7.46 0 0 0 7.458-7.458v-27.441c0-4.124-3.342-7.466-7.458-7.466zm.604 3.642h119.518c2.481 0 4.47 2.006 4.47 4.478v26.483a4.46 4.46 0 0 1-4.47 4.47h-119.518c-2.473 0-4.48-1.997-4.48-4.47v-26.483a4.48 4.48 0 0 1 4.48-4.478zm60.087-133.598l-12.308 39.378-42.064.223 34.014 23.486-12.538 39.376 32.669-23.486 33.79 23.712-12.758-39.602 32.668-23.486h-40.731zm-.226 13.646l8.5 30.65h30.88l-24.614 17.899 10.745 28.864-25.959-18.573-23.274 17.897 9.177-29.306-23.716-17.004 29.979.223z" fill="#ffd530"/><path d="M-583.392 448.532l.068 22.488 4.904-.065v-8.996h2.118l.064 8.996 4.64.065v-9.061l-2.32-2.182 2.32-2.11v-6l-3.278-3.133zm4.969 4.294h2.118v4.841l-2.118.064zm-16.896-4.359l-2.999 22.415h5.043l.272-4.083h2.796l.408 4.083h4.973l-3.201-22.415zm3.611 4.833l1.159 9.206h-2.046zm-35.432 13.426l-.066 4.228h4.974v-4.228zm22.42-.064l.066 4.22h4.908v-4.22zm45.928-18.131l-1.772 10.769-1.844-10.696h-5.855l-.064 22.351h4.567v-14.248l2.175 14.248h1.973l2.183-14.248v14.248h4.639l-.137-22.423zm-57.444 0l-3.034 3.036v6.983l3.22 3.222h3.765v4.816h-2.045v-2.859h-5.042v4.019l3.204 3.206h5.586l3.272-3.278v-6.878l-3.339-3.334h-3.608v-4.704h1.837l.068 2.924h4.839v-4.019l-3.408-3.133zm65.111-.032l4.116 12.911.105 9.504h5.042v-9.504l4.196-12.911h-4.905l-1.812 7.837-1.772-7.837zm-83.99-.032v18.195h-1.974v-18.13l-5.113-.056v19.338l3.272 3.141h5.79l3.136-3.278v-19.209zm45.67-115.966l-6.193 22.91-22.415-.165 17.733 12.703-6.858 21.907 17.396-13.378 19.396 13.886-8.03-21.576 18.404-13.377H-583.1z" clip-path="none" fill="#fff"/></g></svg>