<?xml version="1.0" encoding="UTF-8"?>
<!-- Generator: Adobe Illustrator 26.3.1, SVG Export Plug-In . SVG Version: 6.00 Build 0)  -->
<svg version="1.1" id="Ebene_1" xmlns="http://www.w3.org/2000/svg" xmlns:xlink="http://www.w3.org/1999/xlink" x="0px" y="0px" viewBox="0 0 73.7 73.7" style="enable-background:new 0 0 73.7 73.7;" xml:space="preserve">
<style type="text/css">
	.st0{fill:#E20146;}
	.st1{fill:#FFFFFF;}
</style>
<g>
	<polygon class="st0" points="65.5,0 0,8.19 8.17,73.7 73.7,65.52  "/>
	<g>
		<g>
			<g>
				<g>
					<path class="st1" d="M9.73,46.98h3.84l2.77,7.36h0.04l2.79-7.36h3.56l-4.46,10.34h-4.08L9.73,46.98z"/>
					<path class="st1" d="M26.41,53.19c0.2,1.43,1.29,1.98,3.04,1.98c0.97,0,2.09-0.22,3.16-0.79v2.52       c-1.15,0.46-2.46,0.66-3.8,0.66c-3.42,0-6.03-2-6.03-5.42c0-3.41,2.33-5.4,5.55-5.4c3.84,0,5.23,2.72,5.23,5.79v0.66H26.41z        M30.35,51.17c0-1.19-0.56-2.17-1.99-2.17c-1.29,0-1.91,0.98-1.99,2.17H30.35z"/>
					<path class="st1" d="M42.75,49.84c-0.4-0.12-0.79-0.12-1.21-0.12c-1.67,0-2.61,1.21-2.61,3.23v4.37h-3.58V46.98h3.26v1.9h0.04       c0.62-1.31,1.51-2.14,3.06-2.14c0.42,0,0.85,0.06,1.21,0.12L42.75,49.84z"/>
					<path class="st1" d="M59.57,57.32h-3.3v-1.85h-0.04c-0.46,1.15-1.91,2.08-3.56,2.08c-3.08,0-4.73-2.54-4.73-5.59       c0-2.54,1.57-5.22,4.43-5.22c1.43,0,2.64,0.38,3.56,1.57h0.04v-5.87h3.6V57.32z M53.8,54.82c1.19,0,2.19-1.13,2.19-2.64       c0-1.57-0.87-2.7-2.19-2.7c-1.39,0-2.17,1.19-2.17,2.56C51.63,53.69,52.45,54.82,53.8,54.82z"/>
					<path class="st1" d="M61.93,46.98h3.58v10.34h-3.58V46.98z M65.51,45.3h-3.58v-2.62h3.58V45.3z"/>
				</g>
			</g>
		</g>
		<rect x="42.24" y="53.74" transform="matrix(0.9923 -0.1237 0.1237 0.9923 -6.5649 5.9116)" width="4.19" height="4.18"/>
	</g>
</g>
</svg>